<svg width="1145" height="217" viewBox="0 0 1145 217" fill="none" xmlns="http://www.w3.org/2000/svg">
<path d="M95.396 156.01C92.8875 156.01 90.2315 155.126 87.4279 153.358C84.6243 151.591 83.2225 148.865 83.2225 145.182C83.2225 143.709 84.1078 141.205 85.8785 137.669C87.7968 134.133 90.2315 129.935 93.1826 125.073C96.2813 120.212 99.6014 115.129 103.143 109.826C106.684 104.522 110.226 99.3663 113.767 94.3574C116.57 90.3798 120.186 85.592 124.612 79.9939C129.039 74.3958 133.761 68.4294 138.778 62.0947C143.795 55.76 148.664 49.4253 153.386 43.0906C158.108 36.7559 162.24 30.9369 165.781 25.6334C167.847 22.5397 169.617 19.7407 171.093 17.2362C172.569 14.5845 173.306 12.3011 173.306 10.3859C173.306 8.61812 172.273 7.2186 170.208 6.18737C168.289 5.15614 164.969 4.64052 160.248 4.64052C155.968 4.64052 150.14 5.30346 142.762 6.62932C135.384 7.80787 127.121 9.57569 117.972 11.9328C108.824 14.1426 99.38 16.7943 89.6412 19.888C80.05 22.9817 70.6063 26.37 61.3102 30.0529C52.1616 33.5886 43.8246 37.3452 36.2992 41.3228C28.7737 45.1531 22.7239 49.057 18.1496 53.0346C15.6411 55.2444 14.3869 57.2332 14.3869 59.001C14.3869 61.5054 16.3051 62.7576 20.1416 62.7576C20.8794 63.1996 21.2483 63.6415 21.2483 64.0835C21.2483 65.1147 19.7727 65.4094 16.8216 64.9674C15.6411 64.6728 13.6491 63.8625 10.8455 62.5367C8.18945 61.0635 5.68097 59.2956 3.32005 57.2332C1.10668 55.0234 0 52.8873 0 50.8248C0 49.2043 1.25424 47.3629 3.76272 45.3004C6.2712 43.2379 9.44369 41.1018 13.2802 38.892C17.2642 36.6823 21.3221 34.6198 25.4537 32.7047C29.7329 30.6422 33.5694 28.9481 36.9632 27.6222C40.5046 26.149 43.0868 25.1178 44.71 24.5285C52.9732 21.5821 61.384 18.6358 69.9423 15.6894C78.5006 12.743 87.1328 10.3123 95.8387 8.39715C98.7898 7.66055 103.438 6.62933 109.783 5.30346C116.275 3.97759 123.506 2.79904 131.474 1.76781C139.589 0.58927 147.484 0 155.157 0C161.354 0 167.035 0.58927 172.2 1.76781C177.364 2.79904 181.496 4.64053 184.595 7.29226C187.693 9.79667 189.243 13.406 189.243 18.1202C189.243 20.7719 188.947 22.9817 188.357 24.7495C187.915 26.5173 187.029 28.3588 185.701 30.2739C184.521 32.0417 182.75 34.5462 180.389 37.7872C177.143 42.5014 172.79 47.9521 167.33 54.1395C162.018 60.3269 156.19 66.9562 149.845 74.0275C143.647 81.0988 137.597 88.3174 131.695 95.6833C125.793 102.902 120.628 109.973 116.202 116.897C115.611 117.634 115.242 118.518 115.095 119.549C115.095 120.433 115.464 120.433 116.202 119.549C119.153 116.308 123.358 111.888 128.818 106.29C134.277 100.692 140.475 94.6521 147.41 88.1701C154.345 81.5407 161.576 75.1324 169.101 68.945C176.626 62.7576 183.931 57.4542 191.013 53.0346C196.178 49.6463 201.416 46.9946 206.728 45.0794C212.04 43.1643 216.541 42.2067 220.23 42.2067C222.148 42.2067 223.919 42.9433 225.542 44.4165C227.312 45.7424 228.714 47.2892 229.747 49.057C230.928 50.8248 231.518 52.298 231.518 53.4766C231.518 56.4229 230.19 60.3269 227.534 65.1884C225.025 69.9026 221.779 75.2797 217.795 81.3198C213.958 87.3598 210.048 93.6945 206.064 100.324C202.228 106.953 198.908 113.582 196.104 120.212C193.3 126.841 191.751 133.176 191.456 139.216C188.21 139.511 185.923 138.7 184.595 136.785C183.414 134.723 182.824 132.071 182.824 128.83C182.824 125.589 183.267 122.201 184.152 118.665C185.775 111.152 188.062 104.375 191.013 98.335C193.964 92.1477 197.137 86.1076 200.531 80.2149C203.925 74.3221 207.023 67.9874 209.827 61.2108C211.155 57.8225 211.819 55.318 211.819 53.6975C211.819 51.4878 210.786 50.3829 208.72 50.3829C205.031 50.3829 198.834 53.6976 190.128 60.3269C185.406 64.0098 179.946 68.2821 173.749 73.1436C167.552 77.8578 161.871 82.7929 156.706 87.9491C147.262 97.3775 137.376 107.837 127.047 119.328C116.866 130.819 107.865 142.457 100.044 154.242C99.3063 155.421 97.7569 156.01 95.396 156.01ZM237.715 155.347C236.682 155.347 234.764 154.611 231.961 153.137C229.157 151.664 226.501 149.97 223.992 148.055C221.779 146.434 220.672 143.562 220.672 139.437C220.672 135.607 221.41 131.187 222.886 126.178C224.509 121.022 226.353 115.866 228.419 110.71C230.633 105.554 232.698 100.987 234.617 97.0092C236.682 92.8842 238.232 89.9379 239.265 88.1701C241.33 84.3398 242.363 81.9827 242.363 81.0988C242.363 79.7729 241.257 79.8466 239.043 81.3198C236.977 82.7929 234.174 85.2237 230.633 88.612C227.239 92.0003 223.624 95.9043 219.787 100.324C215.951 104.743 212.262 109.31 208.72 114.024C205.179 118.591 202.228 122.864 199.867 126.841C198.834 128.314 198.022 129.051 197.432 129.051C196.842 129.051 196.547 128.683 196.547 127.946C196.547 127.504 196.916 126.399 197.653 124.631C198.096 123.6 199.055 121.98 200.531 119.77C202.006 117.413 203.629 114.908 205.4 112.257C207.171 109.458 208.794 106.953 210.27 104.743C211.893 102.534 212.926 101.134 213.368 100.545C219.418 92.295 225.689 84.7081 232.182 77.7841C238.674 70.7128 245.462 63.7889 252.545 57.0122C254.168 58.0434 256.676 58.5591 260.07 58.5591C263.612 58.5591 266.341 59.2956 268.26 60.7688C268.998 61.3581 269.366 62.3157 269.366 63.6415C269.366 66.146 268.186 69.6816 265.825 74.2485C263.464 78.8153 260.513 83.9715 256.972 89.7169C253.578 95.315 250.036 100.987 246.347 106.732C242.658 112.478 239.486 117.855 236.83 122.864C234.174 127.725 232.477 131.703 231.739 134.796C231.592 135.533 231.444 136.27 231.297 137.006C231.297 137.743 231.297 138.479 231.297 139.216C231.297 141.278 231.665 143.12 232.403 144.74C233.141 146.214 234.395 146.95 236.166 146.95C237.642 146.95 239.191 146.434 240.814 145.403C242.29 144.225 244.134 142.531 246.347 140.321C248.561 137.964 250.405 136.27 251.881 135.238C252.619 134.649 253.209 134.281 253.652 134.133C254.094 133.986 254.02 134.428 253.43 135.459C252.25 136.932 250.848 139.29 249.225 142.531C247.749 145.772 246.052 148.718 244.134 151.37C242.216 154.021 240.076 155.347 237.715 155.347Z" fill="white"/>
<path d="M276.776 148.055C273.235 148.055 269.693 147.024 266.152 144.961C262.758 142.752 260.618 138.921 259.733 133.47C259.585 132.881 259.512 131.924 259.512 130.598C259.512 126.178 260.692 121.39 263.053 116.234C265.562 110.931 268.734 105.922 272.571 101.208C276.555 96.4935 280.76 92.6633 285.187 89.7169C289.613 86.7705 293.819 85.2973 297.803 85.2973C298.688 86.3286 300.09 87.0652 302.008 87.5071C304.074 87.9491 305.992 88.391 307.763 88.833C309.829 89.4223 311.304 90.3798 312.19 91.7057C313.223 93.0316 313.739 94.5047 313.739 96.1252C313.739 98.0404 313.075 100.177 311.747 102.534C310.419 104.743 308.722 106.732 306.656 108.5C303.263 111.152 299.352 113.803 294.926 116.455C290.499 118.96 286.441 121.464 282.752 123.968C279.211 126.326 276.924 128.683 275.891 131.04C275.595 131.776 275.153 132.145 274.563 132.145C273.53 132.145 273.235 131.555 273.677 130.377C275.153 125.957 277.735 122.201 281.424 119.107C285.113 116.013 288.949 113.141 292.933 110.489C297.065 107.69 300.385 104.743 302.894 101.65C304.812 99.5872 305.771 97.6721 305.771 95.9043C305.771 93.9891 304.738 93.0316 302.672 93.0316C300.902 93.0316 298.983 93.7682 296.918 95.2413C291.015 99.2189 285.482 104.522 280.317 111.152C275.153 117.634 271.685 124.337 269.915 131.261C269.472 133.029 269.251 134.649 269.251 136.122C269.251 138.921 269.988 140.91 271.464 142.089C272.939 143.12 274.71 143.635 276.776 143.635C278.547 143.635 280.391 143.341 282.309 142.752C284.228 142.162 285.925 141.426 287.4 140.542C289.613 139.216 291.827 137.522 294.04 135.459C296.254 133.249 298.098 131.261 299.574 129.493C302.967 125.221 305.328 123.085 306.656 123.085C307.394 123.085 307.247 124.116 306.214 126.178C305.328 128.241 303.41 131.113 300.459 134.796C297.655 138.332 294.262 141.426 290.277 144.077C286.441 146.729 281.94 148.055 276.776 148.055Z" fill="white"/>
<path d="M320.597 145.182C316.908 145.182 313.588 144.372 310.637 142.752C307.686 140.984 306.21 138.258 306.21 134.575C306.21 133.249 306.432 131.85 306.874 130.377C307.464 128.314 308.276 126.988 309.309 126.399C310.489 125.663 311.006 125.81 310.858 126.841C310.563 128.314 310.858 129.64 311.744 130.819C312.629 131.997 313.809 132.955 315.285 133.691C317.056 134.428 318.531 134.796 319.712 134.796C322.663 134.796 325.319 133.691 327.68 131.482C330.188 129.125 331.443 126.62 331.443 123.968C331.443 122.201 330.926 120.727 329.893 119.549C328.123 117.044 326.13 115.129 323.917 113.803C321.851 112.33 320.228 110.268 319.048 107.616L318.826 108.058C317.646 110.415 316.318 112.625 314.842 114.687C313.514 116.603 312.26 118.444 311.08 120.212C308.866 123.305 306.727 126.252 304.661 129.051C302.743 131.703 300.234 134.796 297.135 138.332C296.103 139.511 295.143 140.1 294.258 140.1C293.373 140.1 292.93 139.584 292.93 138.553C292.93 137.964 293.151 137.374 293.594 136.785C296.988 132.66 299.791 129.125 302.005 126.178C304.366 123.085 306.948 119.475 309.752 115.35C311.227 113.288 312.703 111.004 314.178 108.5C315.801 105.848 316.982 103.344 317.72 100.987C317.572 96.2726 319.122 92.2213 322.368 88.833C325.614 85.2973 329.598 82.6456 334.32 80.8778C339.042 79.11 343.469 78.3734 347.6 78.668C348.633 78.668 349.666 79.4783 350.699 81.0988C351.879 82.7193 352.838 84.4134 353.576 86.1813C354.462 87.8018 354.978 88.7593 355.126 89.054V89.4959C355.126 89.9379 354.904 90.3062 354.462 90.6008C354.166 90.8954 353.65 90.7481 352.912 90.1589C352.47 90.0115 351.732 89.9379 350.699 89.9379C348.485 89.9379 345.829 90.3798 342.731 91.2637C339.632 92.0003 336.533 93.1052 333.435 94.5784C330.483 96.0516 328.049 97.6721 326.13 99.4399C324.212 101.208 323.401 103.123 323.696 105.185C323.991 107.1 324.802 108.574 326.13 109.605C327.459 110.636 329.082 111.815 331 113.141C332.918 114.319 334.984 116.161 337.197 118.665C340.001 121.906 341.403 125.221 341.403 128.609C341.403 131.555 340.444 134.281 338.525 136.785C336.607 139.142 334.32 141.057 331.664 142.531C328.565 144.298 324.876 145.182 320.597 145.182Z" fill="white"/>
<path d="M363.611 145.182C359.922 145.182 356.602 144.372 353.651 142.752C350.699 140.984 349.224 138.258 349.224 134.575C349.224 133.249 349.445 131.85 349.888 130.377C350.478 128.314 351.29 126.988 352.323 126.399C353.503 125.663 354.019 125.81 353.872 126.841C353.577 128.314 353.872 129.64 354.757 130.819C355.643 131.997 356.823 132.955 358.299 133.691C360.069 134.428 361.545 134.796 362.725 134.796C365.677 134.796 368.333 133.691 370.693 131.482C373.202 129.125 374.456 126.62 374.456 123.968C374.456 122.201 373.94 120.727 372.907 119.549C371.136 117.044 369.144 115.129 366.931 113.803C364.865 112.33 363.242 110.268 362.061 107.616L361.84 108.058C360.66 110.415 359.332 112.625 357.856 114.687C356.528 116.603 355.274 118.444 354.093 120.212C351.88 123.305 349.74 126.252 347.674 129.051C345.756 131.703 343.248 134.796 340.149 138.332C339.116 139.511 338.157 140.1 337.272 140.1C336.386 140.1 335.944 139.584 335.944 138.553C335.944 137.964 336.165 137.374 336.608 136.785C340.001 132.66 342.805 129.125 345.018 126.178C347.379 123.085 349.962 119.475 352.765 115.35C354.241 113.288 355.716 111.004 357.192 108.5C358.815 105.848 359.996 103.344 360.733 100.987C360.586 96.2726 362.135 92.2213 365.381 88.833C368.628 85.2973 372.612 82.6456 377.334 80.8778C382.055 79.11 386.482 78.3734 390.614 78.668C391.647 78.668 392.68 79.4783 393.712 81.0988C394.893 82.7193 395.852 84.4134 396.59 86.1813C397.475 87.8018 397.992 88.7593 398.139 89.054V89.4959C398.139 89.9379 397.918 90.3062 397.475 90.6008C397.18 90.8954 396.664 90.7481 395.926 90.1589C395.483 90.0115 394.745 89.9379 393.712 89.9379C391.499 89.9379 388.843 90.3798 385.744 91.2637C382.646 92.0003 379.547 93.1052 376.448 94.5784C373.497 96.0516 371.062 97.6721 369.144 99.4399C367.226 101.208 366.414 103.123 366.709 105.185C367.005 107.1 367.816 108.574 369.144 109.605C370.472 110.636 372.095 111.815 374.014 113.141C375.932 114.319 377.998 116.161 380.211 118.665C383.015 121.906 384.416 125.221 384.416 128.609C384.416 131.555 383.457 134.281 381.539 136.785C379.621 139.142 377.334 141.057 374.678 142.531C371.579 144.298 367.89 145.182 363.611 145.182Z" fill="white"/>
<path d="M399.542 147.613C397.181 147.613 395.189 146.803 393.565 145.182C392.09 143.709 390.983 141.941 390.245 139.879C389.508 137.816 389.139 136.049 389.139 134.575C389.139 129.567 390.688 124.263 393.787 118.665C396.886 113.067 400.87 107.837 405.739 102.976C410.756 98.114 415.994 94.1364 421.454 91.0428C426.913 87.9491 432.004 86.4022 436.726 86.4022C440.12 86.4022 443.514 88.6857 446.908 93.2525C447.203 93.6945 447.498 94.2838 447.793 95.0204C448.236 95.757 448.457 96.4935 448.457 97.2301C448.457 98.556 447.94 99.4399 446.908 99.8819C446.76 100.029 446.391 99.5872 445.801 98.556C445.358 97.3775 443.809 96.7882 441.153 96.7882C438.644 96.7882 435.324 97.9667 431.193 100.324C427.061 102.681 422.708 105.775 418.134 109.605C413.707 113.435 409.649 117.56 405.96 121.98C402.419 126.399 399.837 130.671 398.214 134.796C397.918 135.828 397.623 136.859 397.328 137.89C397.033 138.921 396.886 139.805 396.886 140.542C396.886 141.868 397.328 142.531 398.214 142.531C399.099 142.531 400.279 142.015 401.755 140.984C404.854 138.774 408.1 136.049 411.494 132.808C414.888 129.419 418.134 125.957 421.233 122.422C424.479 118.739 427.209 115.277 429.422 112.036C431.635 108.795 433.037 106.143 433.627 104.08C433.922 102.902 435.619 102.313 438.718 102.313C441.227 102.313 443.366 102.902 445.137 104.08C446.908 105.112 447.35 106.29 446.465 107.616C443.809 111.594 441.227 115.792 438.718 120.212C436.21 124.484 434.365 128.83 433.185 133.249C433.037 133.839 432.89 134.354 432.742 134.796C432.742 135.238 432.742 135.607 432.742 135.901C432.742 137.374 433.332 138.111 434.513 138.111C435.841 138.111 437.316 137.448 438.939 136.122C442.038 133.176 445.284 129.419 448.678 124.852C452.22 120.138 455.835 115.498 459.524 110.931C460.852 109.458 461.737 108.721 462.18 108.721C462.622 108.721 462.844 109.089 462.844 109.826C462.844 110.415 462.696 111.004 462.401 111.594C461.811 113.067 460.999 114.614 459.966 116.234C458.933 117.707 457.974 119.033 457.089 120.212C456.351 121.243 455.097 123.085 453.326 125.736C451.556 128.388 449.49 131.187 447.129 134.133C444.768 137.08 442.333 139.658 439.825 141.868C437.316 143.93 434.955 144.961 432.742 144.961C429.643 144.961 427.135 144.004 425.217 142.089C423.446 140.026 422.561 138.185 422.561 136.564C422.561 134.502 422.634 133.102 422.782 132.366C423.077 130.892 423.52 129.125 424.11 127.062C424.848 125 425.512 123.011 426.102 121.096C424.921 122.716 423.151 125 420.79 127.946C418.429 130.892 415.847 133.912 413.043 137.006C410.387 139.952 407.805 142.457 405.296 144.519C402.788 146.582 400.87 147.613 399.542 147.613Z" fill="white"/>
<path d="M422.899 217C420.686 217 418.03 216.042 414.931 214.127C411.833 212.359 409.103 210.15 406.742 207.498C404.233 204.846 402.979 202.268 402.979 199.764C402.979 197.259 404.381 194.166 407.185 190.483C409.841 186.947 413.161 183.338 417.145 179.655C420.981 175.972 424.818 172.583 428.654 169.49C432.491 166.396 435.516 164.113 437.729 162.64C443.779 158.367 449.312 154.905 454.329 152.254C459.494 149.602 464.658 147.245 469.823 145.182C474.987 142.973 480.668 140.615 486.866 138.111C488.931 137.227 490.776 135.091 492.399 131.703C494.022 128.314 495.276 124.779 496.162 121.096C497.195 117.265 497.859 114.393 498.154 112.478C496.678 114.393 494.539 116.971 491.735 120.212C488.931 123.305 485.833 126.473 482.439 129.714C479.193 132.955 475.873 135.68 472.479 137.89C469.085 139.952 465.986 140.984 463.183 140.984C459.936 140.984 456.985 140.1 454.329 138.332C451.673 136.564 450.345 133.765 450.345 129.935C450.345 126.252 451.968 121.685 455.215 116.234C456.985 113.288 459.494 109.826 462.74 105.848C465.986 101.871 469.601 97.9667 473.585 94.1365C477.717 90.3062 481.849 87.1388 485.98 84.6344C490.259 81.9827 494.17 80.6568 497.711 80.6568C499.777 80.9515 502.064 82.13 504.573 84.1925C507.081 86.2549 508.704 88.3174 509.442 90.3798C509.885 91.7057 510.106 92.8842 510.106 93.9155C510.106 95.536 509.59 96.3462 508.557 96.3462C507.819 96.3462 507.155 95.9779 506.565 95.2413C506.122 94.7994 505.163 94.5784 503.687 94.5784C502.212 94.5784 500.589 94.7257 498.818 95.0204C497.047 95.315 495.645 95.757 494.612 96.3462C491.514 97.8194 488.046 100.029 484.21 102.976C480.373 105.922 476.684 109.31 473.143 113.141C469.601 116.823 466.65 120.727 464.289 124.852C463.552 126.031 462.961 127.283 462.519 128.609C462.224 129.935 462.076 131.187 462.076 132.366C462.076 135.165 463.035 136.564 464.953 136.564C466.429 136.564 468.421 135.607 470.929 133.691C479.488 127.209 486.275 120.875 491.292 114.687C496.457 108.5 500.293 103.786 502.802 100.545C505.901 100.545 508.557 101.355 510.77 102.976C512.983 104.449 513.942 106.879 513.647 110.268C513.057 115.129 511.508 119.917 508.999 124.631C506.638 129.198 504.204 133.618 501.695 137.89C505.384 138.479 508.188 140.173 510.106 142.972C512.024 145.772 512.983 148.865 512.983 152.254C512.983 154.611 512.541 156.894 511.655 159.104C510.77 161.019 510.106 161.977 509.663 161.977C508.926 161.977 508.557 161.019 508.557 159.104C508.409 154.832 507.819 151.296 506.786 148.497C505.901 145.698 503.097 144.298 498.375 144.298C495.719 149.307 492.325 154.979 488.194 161.314C484.21 167.648 479.635 174.057 474.471 180.539C469.306 187.021 463.847 192.987 458.092 198.438C452.337 204.036 446.509 208.529 440.606 211.918C434.556 215.306 428.654 217 422.899 217ZM418.915 207.94C421.867 207.94 425.924 206.54 431.089 203.741C435.368 201.384 440.016 198.07 445.033 193.797C449.903 189.525 454.772 184.737 459.641 179.434C464.658 174.278 469.159 169.195 473.143 164.186C477.274 159.325 480.521 154.905 482.882 150.928C485.39 147.097 486.718 144.446 486.866 142.972C483.324 143.709 478.824 145.256 473.364 147.613C468.052 150.117 462.297 153.211 456.1 156.894C449.903 160.724 443.853 164.997 437.95 169.711C432.048 174.572 426.736 179.655 422.014 184.958C419.358 187.905 417.292 190.925 415.817 194.018C414.341 197.259 413.603 200.058 413.603 202.415C413.603 206.098 415.374 207.94 418.915 207.94Z" fill="white"/>
<path d="M531.832 148.055C528.29 148.055 524.749 147.024 521.207 144.961C517.814 142.752 515.674 138.921 514.789 133.47C514.641 132.881 514.567 131.924 514.567 130.598C514.567 126.178 515.748 121.39 518.109 116.234C520.617 110.931 523.79 105.922 527.626 101.208C531.61 96.4935 535.816 92.6633 540.242 89.7169C544.669 86.7705 548.874 85.2973 552.858 85.2973C553.744 86.3286 555.146 87.0652 557.064 87.5071C559.13 87.9491 561.048 88.391 562.819 88.833C564.884 89.4223 566.36 90.3798 567.245 91.7057C568.278 93.0316 568.795 94.5047 568.795 96.1252C568.795 98.0404 568.131 100.177 566.803 102.534C565.475 104.743 563.778 106.732 561.712 108.5C558.318 111.152 554.408 113.803 549.981 116.455C545.554 118.96 541.497 121.464 537.808 123.968C534.266 126.326 531.979 128.683 530.946 131.04C530.651 131.776 530.208 132.145 529.618 132.145C528.585 132.145 528.29 131.555 528.733 130.377C530.208 125.957 532.791 122.201 536.48 119.107C540.169 116.013 544.005 113.141 547.989 110.489C552.121 107.69 555.441 104.743 557.949 101.65C559.867 99.5872 560.827 97.6721 560.827 95.9043C560.827 93.9891 559.794 93.0316 557.728 93.0316C555.957 93.0316 554.039 93.7682 551.973 95.2413C546.071 99.2189 540.537 104.522 535.373 111.152C530.208 117.634 526.741 124.337 524.97 131.261C524.527 133.029 524.306 134.649 524.306 136.122C524.306 138.921 525.044 140.91 526.519 142.089C527.995 143.12 529.766 143.635 531.832 143.635C533.602 143.635 535.447 143.341 537.365 142.752C539.283 142.162 540.98 141.426 542.456 140.542C544.669 139.216 546.882 137.522 549.096 135.459C551.309 133.249 553.154 131.261 554.629 129.493C558.023 125.221 560.384 123.085 561.712 123.085C562.45 123.085 562.302 124.116 561.269 126.178C560.384 128.241 558.466 131.113 555.515 134.796C552.711 138.332 549.317 141.426 545.333 144.077C541.497 146.729 536.996 148.055 531.832 148.055Z" fill="white"/>
<path d="M649.845 127.726H637.933V122.926H649.845C652.152 122.926 654.02 122.559 655.449 121.826C656.878 121.092 657.919 120.073 658.572 118.769C659.246 117.464 659.582 115.976 659.582 114.305C659.582 112.777 659.246 111.34 658.572 109.995C657.919 108.649 656.878 107.569 655.449 106.754C654.02 105.918 652.152 105.501 649.845 105.501H639.311V145.182H633.401V100.67H649.845C653.213 100.67 656.061 101.251 658.388 102.413C660.715 103.575 662.481 105.185 663.686 107.243C664.89 109.281 665.492 111.615 665.492 114.244C665.492 117.097 664.89 119.533 663.686 121.551C662.481 123.568 660.715 125.107 658.388 126.167C656.061 127.206 653.213 127.726 649.845 127.726Z" fill="white"/>
<path d="M694.913 100.67H709.672C713.02 100.67 715.848 101.18 718.154 102.199C720.482 103.218 722.247 104.726 723.452 106.723C724.677 108.7 725.289 111.136 725.289 114.03C725.289 116.068 724.871 117.933 724.034 119.625C723.217 121.296 722.033 122.722 720.482 123.905C718.951 125.066 717.113 125.932 714.97 126.503L713.316 127.145H699.445L699.384 122.345H709.856C711.979 122.345 713.745 121.979 715.154 121.245C716.562 120.491 717.624 119.482 718.338 118.218C719.053 116.955 719.41 115.559 719.41 114.03C719.41 112.318 719.073 110.82 718.399 109.536C717.726 108.252 716.664 107.263 715.215 106.571C713.786 105.857 711.938 105.501 709.672 105.501H700.823V145.182H694.913V100.67ZM720.972 145.182L710.132 125.005L716.287 124.975L727.279 144.815V145.182H720.972Z" fill="white"/>
<path d="M783.83 140.383V145.182H760.222V140.383H783.83ZM761.416 100.67V145.182H755.506V100.67H761.416ZM780.707 119.808V124.608H760.222V119.808H780.707ZM783.524 100.67V105.501H760.222V100.67H783.524Z" fill="white"/>
<path d="M836.86 133.932C836.86 132.893 836.697 131.975 836.37 131.181C836.064 130.365 835.513 129.632 834.717 128.979C833.941 128.327 832.859 127.706 831.471 127.115C830.103 126.524 828.368 125.922 826.265 125.311C824.06 124.659 822.07 123.935 820.294 123.14C818.518 122.325 816.997 121.398 815.732 120.358C814.466 119.319 813.496 118.127 812.823 116.781C812.149 115.436 811.812 113.897 811.812 112.165C811.812 110.433 812.169 108.833 812.884 107.365C813.598 105.898 814.619 104.624 815.946 103.544C817.293 102.443 818.896 101.587 820.753 100.976C822.611 100.365 824.683 100.059 826.969 100.059C830.317 100.059 833.155 100.701 835.482 101.985C837.83 103.248 839.616 104.909 840.841 106.968C842.066 109.006 842.678 111.187 842.678 113.51H836.799C836.799 111.839 836.442 110.361 835.727 109.077C835.013 107.773 833.931 106.754 832.481 106.02C831.032 105.266 829.195 104.889 826.969 104.889C824.867 104.889 823.132 105.205 821.764 105.837C820.396 106.469 819.375 107.325 818.702 108.405C818.049 109.485 817.722 110.718 817.722 112.104C817.722 113.041 817.916 113.897 818.304 114.672C818.712 115.426 819.335 116.129 820.172 116.781C821.029 117.434 822.111 118.035 823.417 118.585C824.744 119.135 826.326 119.665 828.164 120.175C830.695 120.888 832.879 121.683 834.717 122.559C836.554 123.436 838.064 124.424 839.249 125.525C840.453 126.605 841.341 127.838 841.913 129.224C842.505 130.59 842.801 132.138 842.801 133.871C842.801 135.685 842.433 137.325 841.698 138.793C840.963 140.26 839.912 141.514 838.544 142.553C837.176 143.593 835.533 144.398 833.614 144.968C831.716 145.519 829.593 145.794 827.245 145.794C825.183 145.794 823.152 145.508 821.151 144.938C819.171 144.367 817.365 143.511 815.732 142.37C814.119 141.228 812.823 139.822 811.843 138.151C810.883 136.459 810.403 134.503 810.403 132.281H816.283C816.283 133.81 816.579 135.124 817.171 136.225C817.763 137.305 818.569 138.202 819.59 138.915C820.631 139.628 821.805 140.158 823.111 140.505C824.438 140.831 825.816 140.994 827.245 140.994C829.307 140.994 831.052 140.709 832.481 140.138C833.91 139.567 834.992 138.752 835.727 137.692C836.482 136.632 836.86 135.379 836.86 133.932Z" fill="white"/>
<path d="M900.607 140.383V145.182H876.998V140.383H900.607ZM878.192 100.67V145.182H872.283V100.67H878.192ZM897.484 119.808V124.608H876.998V119.808H897.484ZM900.301 100.67V105.501H876.998V100.67H900.301Z" fill="white"/>
<path d="M964.17 100.67V145.182H958.23L935.785 110.851V145.182H929.875V100.67H935.785L958.322 135.094V100.67H964.17Z" fill="white"/>
<path d="M1012.15 100.67V145.182H1006.33V100.67H1012.15ZM1026.48 100.67V105.501H992.029V100.67H1026.48Z" fill="white"/>
<path d="M1083.37 140.383V145.182H1059.76V140.383H1083.37ZM1060.95 100.67V145.182H1055.04V100.67H1060.95ZM1080.24 119.808V124.608H1059.76V119.808H1080.24ZM1083.06 100.67V105.501H1059.76V100.67H1083.06Z" fill="white"/>
<path d="M1112.63 100.67H1127.39C1130.74 100.67 1133.57 101.18 1135.87 102.199C1138.2 103.218 1139.97 104.726 1141.17 106.723C1142.4 108.7 1143.01 111.136 1143.01 114.03C1143.01 116.068 1142.59 117.933 1141.75 119.625C1140.94 121.296 1139.75 122.722 1138.2 123.905C1136.67 125.066 1134.83 125.932 1132.69 126.503L1131.04 127.145H1117.17L1117.1 122.345H1127.58C1129.7 122.345 1131.47 121.979 1132.87 121.245C1134.28 120.491 1135.34 119.482 1136.06 118.218C1136.77 116.955 1137.13 115.559 1137.13 114.03C1137.13 112.318 1136.79 110.82 1136.12 109.536C1135.45 108.252 1134.38 107.263 1132.94 106.571C1131.51 105.857 1129.66 105.501 1127.39 105.501H1118.54V145.182H1112.63V100.67ZM1138.69 145.182L1127.85 125.005L1134.01 124.975L1145 144.815V145.182H1138.69Z" fill="white"/>
</svg>
